<?xml version="1.0" encoding="utf-8"?>
<!-- Generator: Adobe Illustrator 24.1.2, SVG Export Plug-In . SVG Version: 6.00 Build 0)  -->
<svg version="1.1" id="Capa_1" xmlns="http://www.w3.org/2000/svg" xmlns:xlink="http://www.w3.org/1999/xlink" x="200px" y="200px"
	 viewBox="0 0 197 196" style="enable-background:new 0 0 197 196;" xml:space="preserve">
<style type="text/css">
	.st0{fill:url(#SVGID_1_);}
	.st1{fill:url(#SVGID_2_);}
	.st2{fill:url(#SVGID_3_);}
	.st3{fill:url(#SVGID_4_);}
</style>
<radialGradient id="SVGID_1_" cx="-416.982" cy="-5.857" r="1" gradientTransform="matrix(-138.833 0 0 -101.418 -57769.8984 -554.7935)" gradientUnits="userSpaceOnUse">
	<stop  offset="0" style="stop-color:#FFFFFF"/>
	<stop  offset="0.198" style="stop-color:#FFFFFF"/>
	<stop  offset="1" style="stop-color:#FFFFFF"/>
</radialGradient>
<path class="st0" d="M151.3,61.6c-2-27.7-24.9-49.6-53.2-49.6S46.7,33.9,44.9,61.6C23.8,62.8,7,80.2,7,101.3
	c0,22,17.8,39.7,39.7,39.7h102.6c21.9,0,39.7-17.8,39.7-39.7C189,80.2,172.2,62.8,151.3,61.6z"/>
<radialGradient id="SVGID_2_" cx="-404.0893" cy="-19.6281" r="1" gradientTransform="matrix(-14.0561 19.3224 -28.1877 -20.5051 -6121.1309 7452.7725)" gradientUnits="userSpaceOnUse">
	<stop  offset="0" style="stop-color:#FFFFFF"/>
	<stop  offset="1" style="stop-color:#FFFFFF;stop-opacity:0"/>
</radialGradient>
<path class="st1" d="M98.1,66.5c-15-12.1-20.7-30.6-13-41.3s26.3-9.5,41.1,2.6c15,12.1,20.7,30.6,13,41.3
	C131.5,80,112.9,78.8,98.1,66.5z"/>
<radialGradient id="SVGID_3_" cx="-401.3898" cy="-24.9764" r="1.0006" gradientTransform="matrix(-11.047 15.186 -22.1534 -16.1155 -4824.8809 5780.3516)" gradientUnits="userSpaceOnUse">
	<stop  offset="0" style="stop-color:#FFFFFF"/>
	<stop  offset="1" style="stop-color:#FFFFFF;stop-opacity:0"/>
</radialGradient>
<path class="st2" d="M151.5,102.5c-11.9-9.5-16.4-24.1-10.3-32.4c6.1-8.3,20.6-7.5,32.4,2.2c11.9,9.5,16.4,24.1,10.3,32.4
	C177.7,113,163.3,112,151.5,102.5z"/>
<radialGradient id="SVGID_4_" cx="-402.0153" cy="25.5114" r="0.9978" gradientTransform="matrix(8.6725 -4.1755 12.1553 25.2464 3205.0344 -2208.8633)" gradientUnits="userSpaceOnUse">
	<stop  offset="0" style="stop-color:#FFFFFF"/>
	<stop  offset="1" style="stop-color:#FFFFFF;stop-opacity:0"/>
</radialGradient>
<path class="st3" d="M35.5,103.9C26.8,90.3,16.7,83.7,13,89.3c-3.8,5.5,0.2,20.9,8.9,34.4c8.7,13.6,18.8,20.2,22.5,14.6
	C48.1,132.7,44.2,117.3,35.5,103.9z"/>
</svg>
