<?xml version="1.0" encoding="utf-8"?>
<!-- Generator: Adobe Illustrator 24.1.2, SVG Export Plug-In . SVG Version: 6.00 Build 0)  -->
<svg version="1.1" id="Capa_1" xmlns="http://www.w3.org/2000/svg" xmlns:xlink="http://www.w3.org/1999/xlink" x="0px" y="0px"
	 viewBox="0 0 197 196" style="enable-background:new 0 0 197 196;" xml:space="preserve">
<style type="text/css">
	.st0{fill:url(#SVGID_1_);}
	.st1{fill:url(#SVGID_2_);}
	.st2{fill:url(#SVGID_3_);}
	.st3{fill:url(#SVGID_4_);}
	.st4{fill:url(#SVGID_5_);}
	.st5{fill:url(#SVGID_6_);}
	.st6{fill:url(#SVGID_7_);}
	.st7{fill:url(#SVGID_8_);}
</style>
<radialGradient id="SVGID_1_" cx="-208.491" cy="497.9285" r="1" gradientTransform="matrix(-138.833 0 0 101.418 -28824.4688 -50459.7031)" gradientUnits="userSpaceOnUse">
	<stop  offset="0" style="stop-color:#FFFFFF"/>
	<stop  offset="0.198" style="stop-color:#FFFFFF"/>
	<stop  offset="1" style="stop-color:#FFFFFF"/>
</radialGradient>
<path class="st0" d="M151.3,61.6c-2-27.7-24.9-49.6-53.2-49.6c-28.3,0-51.4,21.9-53.2,49.6C23.8,62.8,7,80.2,7,101.3
	C7,123.3,24.8,141,46.7,141h102.6c21.9,0,39.7-17.8,39.7-39.7C189,80.2,172.2,62.8,151.3,61.6z"/>
<radialGradient id="SVGID_2_" cx="-202.0446" cy="504.814" r="1.0003" gradientTransform="matrix(-14.0561 19.3224 28.1877 20.5051 -16957.4297 -6399.9888)" gradientUnits="userSpaceOnUse">
	<stop  offset="0" style="stop-color:#FFFFFF"/>
	<stop  offset="1" style="stop-color:#FFFFFF;stop-opacity:0"/>
</radialGradient>
<path class="st1" d="M98.1,66.5c-15-12.1-20.7-30.6-13-41.3c7.7-10.7,26.3-9.5,41.1,2.6c15,12.1,20.7,30.6,13,41.3
	C131.5,80,112.9,78.8,98.1,66.5z"/>
<radialGradient id="SVGID_3_" cx="-200.6949" cy="507.4876" r="1.0002" gradientTransform="matrix(-11.047 15.186 22.1534 16.1155 -13297.085 -5043.3228)" gradientUnits="userSpaceOnUse">
	<stop  offset="0" style="stop-color:#FFFFFF"/>
	<stop  offset="1" style="stop-color:#FFFFFF;stop-opacity:0"/>
</radialGradient>
<path class="st2" d="M151.5,102.5c-11.9-9.5-16.4-24.1-10.3-32.4c6.1-8.3,20.6-7.5,32.4,2.2c11.9,9.5,16.4,24.1,10.3,32.4
	C177.7,113,163.3,112,151.5,102.5z"/>
<radialGradient id="SVGID_4_" cx="-201.0066" cy="482.2457" r="0.9987" gradientTransform="matrix(8.6725 -4.1755 -12.1553 -25.2464 7633.7007 11449.4336)" gradientUnits="userSpaceOnUse">
	<stop  offset="0" style="stop-color:#FFFFFF"/>
	<stop  offset="1" style="stop-color:#FFFFFF;stop-opacity:0"/>
</radialGradient>
<path class="st3" d="M35.5,103.9c-8.7-13.6-18.8-20.2-22.5-14.6c-3.8,5.5,0.2,20.9,8.9,34.4c8.7,13.6,18.8,20.2,22.5,14.6
	C48.1,132.7,44.2,117.3,35.5,103.9z"/>
<radialGradient id="SVGID_5_" cx="-222.6924" cy="550.7974" r="1" gradientTransform="matrix(-3.9908 1.7738 2.5875 5.8217 -2270.1455 -2649.0903)" gradientUnits="userSpaceOnUse">
	<stop  offset="0" style="stop-color:#FFFFFF"/>
	<stop  offset="1" style="stop-color:#FFFFFF;stop-opacity:0"/>
</radialGradient>
<path class="st4" d="M39.8,164.2c-1.2-3.4-0.6-6.7,1.8-7.7c2.2-1,4.9,1,6.3,4.2c1.2,3.4,0.4,6.7-1.8,7.7
	C43.8,169.5,41,167.5,39.8,164.2z"/>
<radialGradient id="SVGID_6_" cx="-222.6924" cy="550.7973" r="1" gradientTransform="matrix(-3.9908 1.7738 2.5875 5.8217 -2236.1738 -2649.0938)" gradientUnits="userSpaceOnUse">
	<stop  offset="0" style="stop-color:#FFFFFF"/>
	<stop  offset="1" style="stop-color:#FFFFFF;stop-opacity:0"/>
</radialGradient>
<path class="st5" d="M73.8,164.2c-1.2-3.4-0.6-6.7,1.8-7.7c2.2-1,4.9,1,6.3,4.2c1.2,3.4,0.4,6.7-1.8,7.7
	C77.7,169.5,75,167.5,73.8,164.2z"/>
<radialGradient id="SVGID_7_" cx="-222.6924" cy="550.7974" r="1" gradientTransform="matrix(-3.9908 1.7738 2.5875 5.8217 -2202.196 -2649.0903)" gradientUnits="userSpaceOnUse">
	<stop  offset="0" style="stop-color:#FFFFFF"/>
	<stop  offset="1" style="stop-color:#FFFFFF;stop-opacity:0"/>
</radialGradient>
<path class="st6" d="M107.8,164.2c-1.2-3.4-0.6-6.7,1.8-7.7c2.2-1,4.9,1,6.3,4.2c1.2,3.4,0.4,6.7-1.8,7.7
	C111.7,169.5,109,167.5,107.8,164.2z"/>
<radialGradient id="SVGID_8_" cx="-222.6913" cy="550.7937" r="1" gradientTransform="matrix(-3.9911 1.7739 2.5876 5.8221 -2168.3584 -2649.2568)" gradientUnits="userSpaceOnUse">
	<stop  offset="0" style="stop-color:#FFFFFF"/>
	<stop  offset="1" style="stop-color:#FFFFFF;stop-opacity:0"/>
</radialGradient>
<path class="st7" d="M141.8,164.2c-1.2-3.4-0.6-6.7,1.8-7.7c2.2-1,4.9,1,6.3,4.2c1.2,3.4,0.4,6.7-1.8,7.7
	C145.7,169.5,143,167.5,141.8,164.2z"/>
</svg>
